PathFileType	4	(X/Y/Z)	Walk4.trc
DataRate	CameraRate	NumFrames	NumMarkers	Units	OrigDataRate	OrigDataStartFrame	OrigNumFrames
200.000000	200.000000	7	61	mm	200.000000	209	476
Frame#	Times		LFHD		RFHD		CLAV		LASI		RASI		RACR1		RUA1		RWRU		RCAR		LACR1		LUA1		LWRU		LCAR		RTH3		RTB1		LTH1		LTH2		LTH4		LLFC		LTB1		LTB2		LTB4		LTH3		LFA1		RTH2		LToe		LTB3		STRN		RTB4		LBHD		RWRR		RTB3		RMT5		RFA1		RMFC		RToe		RTH4		RTH1		RLFC		RMT1		RTB2		LElbow		RMMAL		LWRR		LMFC		T10		RElbow		LPSI		LMT1		RBack		LCAL		RBHD		LMMAL		RPSI		RElbowM		RLMAL		RCAL		C7		LMT5		LElbowM		LLMAL
			X1	Y1	Z1	X2	Y2	Z2	X3	Y3	Z3	X4	Y4	Z4	X5	Y5	Z5	X6	Y6	Z6	X7	Y7	Z7	X8	Y8	Z8	X9	Y9	Z9	X10	Y10	Z10	X11	Y11	Z11	X12	Y12	Z12	X13	Y13	Z13	X14	Y14	Z14	X15	Y15	Z15	X16	Y16	Z16	X17	Y17	Z17	X18	Y18	Z18	X19	Y19	Z19	X20	Y20	Z20	X21	Y21	Z21	X22	Y22	Z22	X23	Y23	Z23	X24	Y24	Z24	X25	Y25	Z25	X26	Y26	Z26	X27	Y27	Z27	X28	Y28	Z28	X29	Y29	Z29	X30	Y30	Z30	X31	Y31	Z31	X32	Y32	Z32	X33	Y33	Z33	X34	Y34	Z34	X35	Y35	Z35	X36	Y36	Z36	X37	Y37	Z37	X38	Y38	Z38	X39	Y39	Z39	X40	Y40	Z40	X41	Y41	Z41	X42	Y42	Z42	X43	Y43	Z43	X44	Y44	Z44	X45	Y45	Z45	X46	Y46	Z46	X47	Y47	Z47	X48	Y48	Z48	X49	Y49	Z49	X50	Y50	Z50	X51	Y51	Z51	X52	Y52	Z52	X53	Y53	Z53	X54	Y54	Z54	X55	Y55	Z55	X56	Y56	Z56	X57	Y57	Z57	X58	Y58	Z58	X59	Y59	Z59	X60	Y60	Z60	X61	Y61	Z61

209	1.045	-385.86	1565.2	-33.225	-383.54	1568.4	66.855	-428.26	1293.4	18.075	-438.28	886.34	-89.732	-454.97	899.83	160.17	-486.72	1331	187.03	-472.78	1163.2	243.47	-244.71	853.46	244.39	-214.28	789.13	289.78	-514.43	1345.1	-128.93	-592.37	1195.3	-189.91	-732.27	810.76	-230.47	-797.4	764.99	-248.97	-613.78	585.63	191.3	-704.54	337.55	133.08	-451.19	720.85	-164.49	-374.72	664.86	-122.86	-424.31	640.05	-148.47	-347.06	437.39	-97.962	-277.61	361.89	-34.022	-275.58	268.66	-85.165	-259.71	277.68	-26.827	-396.71	561.2	-128.18	-725.97	937.6	-232.22	-531.26	649.75	186.5	-56.507	103.23	-20.66	-236.01	196.63	-18.603	-402.94	1160.6	22.699	-750.18	263.83	123.57	-532.22	1508.5	-51.848	-284.32	815.08	285.29	-796.11	191.94	112.01	-830.98	23.416	120.67	-349.94	913.52	291.3	-701.73	452.58	35.313	-745.67	19.745	66.312	-583.97	662.27	209.35	-551.54	740.82	230.78	-675.35	444.55	163.36	-796.25	28.782	35.918	-793.79	286.69	160.7	-676.92	1061.3	-202.1	-872.89	135.19	40.631	-793.91	839.27	-214.15	-367.15	422.08	33.803	-610.17	1181.8	27.577	-456.31	997.59	281.99	-615.08	941.48	-37.99	-106.43	87.634	7.2544	-608.44	1266.6	103.15	-290.3	26.7	-8.124	-527.17	1517.8	91.624	-241.24	96.444	23.335	-619.82	941.49	61.822	-490.23	985.35	211.59	-899.26	122.82	116.98	-951.27	125.66	74.03	-541.2	1394	23.81	-134.93	61.869	-64.637	-685.26	1046.8	-129.1	-250.45	70.75	-54.735
210	1.05	-377.69	1564.6	-33.438	-375.52	1567.6	66.636	-419.35	1292.5	17.422	-429.14	885.44	-89.805	-445.8	898.58	159.97	-478.02	1330	186.35	-464.36	1162.3	242.85	-236.4	852.55	244.36	-206.15	788.17	289.77	-505.6	1344	-129.67	-583.49	1194.1	-190.62	-723.62	809.7	-231.25	-788.79	763.9	-249.7	-604.57	584.3	191.28	-697.37	336.41	133.56	-441.47	720.46	-164.46	-365.14	664.57	-122.44	-414.65	639.69	-148.14	-337.73	436.89	-97.613	-269.23	360.72	-33.287	-267.7	267.49	-84.332	-252.07	276.42	-25.941	-387.1	560.9	-127.6	-717.19	936.54	-233.07	-522.11	648.47	186.29	-50.625	99.38	-18.882	-229.14	195.24	-17.556	-393.88	1159.7	22.02	-744.28	263.52	124.27	-523.82	1507.5	-52.368	-276.13	814.07	285.04	-791.52	192.46	112.87	-830.4	23.768	120.93	-341.79	912.49	290.98	-693.01	451.54	35.831	-746.14	19.692	66.139	-574.82	661.01	209.14	-542.42	739.64	230.33	-666.37	443.22	163.66	-796.29	28.838	36.018	-787.45	287.22	161.39	-668.09	1060.2	-202.91	-869.64	137.11	41.901	-785.27	838.29	-215.08	-358.49	421.66	33.973	-601.17	1180.7	27.047	-448.17	996.55	281.39	-605.83	940.82	-38.409	-100.79	84.286	8.7069	-599.62	1265.4	102.41	-285.25	26.688	-7.5842	-518.93	1516.5	91.18	-235.4	95.125	24.262	-610.54	940.56	61.44	-481.81	984.34	210.86	-895.89	125.22	118.26	-947.78	129.54	75.589	-532.47	1393	23.026	-129.38	59.23	-63.36	-676.51	1045.7	-129.92	-244.55	69.738	-53.877
211	1.055	-369.49	1564.2	-33.666	-367.48	1567	66.4	-410.41	1291.7	16.741	-420.07	884.65	-89.929	-436.56	897.33	159.69	-469.3	1329.1	185.66	-455.95	1161.4	242.21	-228.26	851.45	244.37	-198.25	787.02	289.83	-496.75	1342.9	-130.44	-574.46	1192.9	-191.36	-714.62	808.55	-232.09	-779.79	762.69	-250.53	-595.04	582.86	191.23	-689.83	335.18	134.07	-431.84	720.17	-164.45	-355.57	664.44	-122.14	-405.03	639.48	-147.81	-328.3	436.57	-97.279	-260.96	359.59	-32.498	-260.05	266.38	-83.463	-244.71	275.17	-24.999	-377.46	560.76	-127.03	-708.13	935.39	-233.99	-512.72	647.15	186.02	-45.478	95.006	-17.007	-222.77	193.82	-16.451	-384.78	1158.9	21.306	-738.03	263.15	124.99	-515.4	1506.5	-52.931	-268.14	812.96	284.85	-786.62	192.97	113.76	-829.75	24.218	121.22	-333.75	911.41	290.68	-683.9	450.34	36.371	-746.64	19.615	65.978	-565.42	659.66	208.87	-533.12	738.39	229.82	-656.97	441.75	163.95	-796.3	28.972	36.152	-780.74	287.72	162.11	-659.05	1059	-203.78	-866.08	139.11	43.229	-776.3	837.19	-216.09	-349.73	421.49	34.108	-592.14	1179.7	26.51	-440.06	995.57	280.77	-596.61	940.27	-38.726	-95.932	80.539	10.241	-590.77	1264.4	101.64	-281.08	26.836	-7.0904	-510.68	1515.2	90.698	-230.3	93.796	25.193	-601.25	939.7	61.166	-473.39	983.38	210.1	-892.19	127.71	119.59	-943.91	133.62	77.213	-523.72	1392	22.201	-124.63	56.335	-62.049	-667.59	1044.6	-130.82	-239.38	68.767	-53.028
212	1.06	-361.28	1563.8	-33.911	-359.44	1566.4	66.147	-401.44	1291	16.041	-411.06	883.99	-90.108	-427.26	896.1	159.33	-460.54	1328.2	184.95	-447.57	1160.5	241.54	-220.31	850.19	244.4	-190.59	785.72	289.95	-487.86	1341.8	-131.24	-565.28	1191.6	-192.15	-705.27	807.3	-232.99	-770.39	761.39	-251.47	-585.2	581.3	191.13	-681.91	333.86	134.61	-422.31	720	-164.48	-346.03	664.47	-121.97	-395.47	639.39	-147.51	-318.78	436.42	-96.965	-252.79	358.52	-31.666	-252.61	265.35	-82.576	-237.64	273.96	-24.02	-367.81	560.79	-126.48	-698.78	934.15	-234.97	-503.09	645.8	185.67	-41.008	90.226	-15.065	-216.84	192.4	-15.311	-375.67	1158.2	20.563	-731.44	262.74	125.74	-506.95	1505.6	-53.531	-260.38	811.73	284.71	-781.37	193.51	114.68	-829.01	24.794	121.55	-325.82	910.28	290.38	-674.35	448.96	36.929	-747.17	19.51	65.84	-555.79	658.22	208.55	-523.65	737.07	229.24	-647.12	440.13	164.23	-796.25	29.204	36.328	-773.64	288.21	162.85	-649.8	1057.8	-204.71	-862.19	141.21	44.606	-767	835.96	-217.19	-340.89	421.58	34.211	-583.11	1178.8	25.97	-431.98	994.63	280.11	-587.46	939.83	-38.937	-91.785	76.494	11.831	-581.9	1263.5	100.85	-277.69	27.135	-6.66	-502.42	1514.1	90.176	-225.86	92.5	26.099	-591.98	938.91	61.005	-465	982.48	209.31	-888.14	130.32	120.97	-939.61	137.9	78.897	-514.93	1391.1	21.344	-120.6	53.272	-60.735	-658.51	1043.3	-131.77	-234.88	67.87	-52.212
213	1.065	-353.05	1563.5	-34.175	-351.39	1565.8	65.873	-392.46	1290.3	15.326	-402.13	883.48	-90.346	-417.93	894.88	158.89	-451.76	1327.5	184.24	-439.2	1159.7	240.84	-212.55	848.75	244.45	-183.19	784.25	290.14	-478.96	1340.8	-132.05	-555.94	1190.4	-192.97	-695.56	805.96	-233.93	-760.58	759.99	-252.51	-575.05	579.63	190.99	-673.57	332.45	135.16	-412.91	719.94	-164.57	-336.52	664.67	-121.94	-385.97	639.44	-147.26	-309.21	436.46	-96.672	-244.75	357.54	-30.804	-245.36	264.43	-81.692	-230.81	272.83	-23.023	-358.17	560.97	-125.96	-689.14	932.84	-236	-493.22	644.42	185.26	-37.154	85.172	-13.085	-211.32	191.03	-14.166	-366.54	1157.5	19.796	-724.46	262.28	126.5	-498.47	1504.8	-54.167	-252.83	810.4	284.61	-775.77	194.06	115.62	-828.16	25.525	121.91	-318.01	909.12	290.08	-664.33	447.4	37.494	-747.69	19.376	65.735	-545.91	656.7	208.18	-514.01	735.71	228.6	-636.82	438.37	164.5	-796.1	29.558	36.555	-766.11	288.67	163.61	-640.35	1056.5	-205.69	-857.93	143.41	46.022	-757.36	834.63	-218.38	-332	421.91	34.285	-574.07	1178	25.435	-423.94	993.76	279.43	-578.37	939.51	-39.038	-88.279	72.261	13.446	-573.02	1262.7	100.05	-274.96	27.571	-6.3082	-494.16	1513	89.616	-222.01	91.276	26.954	-582.73	938.2	60.959	-456.61	981.64	208.49	-883.72	133.05	122.38	-934.86	142.41	80.632	-506.12	1390.3	20.463	-117.22	50.129	-59.453	-649.26	1042.1	-132.78	-230.97	67.074	-51.453
214	1.07	-344.8	1563.3	-34.46	-343.33	1565.4	65.578	-383.46	1289.8	14.604	-393.29	883.12	-90.646	-408.59	893.69	158.38	-442.93	1326.8	183.54	-430.85	1158.9	240.12	-204.98	847.15	244.51	-176.03	782.64	290.38	-470.03	1339.9	-132.87	-546.47	1189.1	-193.81	-685.5	804.56	-234.93	-750.38	758.51	-253.66	-564.58	577.86	190.79	-664.82	330.96	135.73	-403.64	720	-164.72	-327.08	665.02	-122.06	-376.56	639.62	-147.07	-299.6	436.67	-96.404	-236.83	356.66	-29.928	-238.29	263.63	-80.835	-224.24	271.79	-22.032	-348.57	561.31	-125.5	-679.2	931.45	-237.08	-483.11	643.02	184.76	-33.86	79.982	-11.1	-206.18	189.74	-13.042	-357.4	1156.9	19.013	-717.09	261.79	127.27	-489.97	1504.1	-54.834	-245.51	808.98	284.56	-769.78	194.65	116.57	-827.17	26.449	122.31	-310.32	907.92	289.79	-653.83	445.63	38.057	-748.2	19.212	65.677	-535.79	655.11	207.75	-504.21	734.29	227.89	-626.06	436.48	164.74	-795.82	30.06	36.845	-758.15	289.13	164.38	-630.69	1055.2	-206.71	-853.29	145.72	47.463	-747.38	833.19	-219.64	-323.07	422.49	34.335	-565.04	1177.3	24.911	-415.93	992.97	278.73	-569.36	939.29	-39.027	-85.351	67.954	15.053	-564.12	1262	99.239	-272.8	28.122	-6.0465	-485.89	1512	89.019	-218.71	90.153	27.737	-573.54	937.55	61.03	-448.26	980.86	207.64	-878.9	135.92	123.81	-929.63	147.15	82.407	-497.28	1389.6	19.57	-114.39	46.995	-58.237	-639.84	1040.8	-133.83	-227.58	66.395	-50.77
215	1.075	-336.54	1563.2	-34.768	-335.26	1565.2	65.258	-374.45	1289.3	13.882	-384.53	882.92	-91.009	-399.26	892.55	157.79	-434.07	1326.1	182.84	-422.51	1158.3	239.39	-197.61	845.4	244.6	-169.12	780.89	290.67	-461.08	1339.1	-133.68	-536.85	1187.8	-194.67	-675.06	803.1	-235.97	-739.76	756.96	-254.91	-553.79	575.99	190.55	-655.63	329.39	136.31	-394.5	720.17	-164.94	-317.71	665.51	-122.33	-367.25	639.93	-146.95	-290.01	437.03	-96.163	-229.06	355.89	-29.058	-231.4	262.96	-80.024	-217.89	270.85	-21.071	-339.03	561.8	-125.1	-668.98	930.01	-238.21	-472.78	641.62	184.18	-31.067	74.782	-9.1398	-201.38	188.54	-11.968	-348.28	1156.4	18.224	-709.31	261.29	128.03	-481.44	1503.5	-55.527	-238.42	807.47	284.55	-763.39	195.28	117.52	-826.01	27.602	122.76	-302.75	906.69	289.49	-642.82	443.65	38.608	-748.65	19.019	65.682	-525.43	653.43	207.25	-494.25	732.83	227.11	-614.83	434.46	164.97	-795.36	30.736	37.207	-749.74	289.58	165.15	-620.84	1053.9	-207.76	-848.24	148.17	48.914	-737.06	831.67	-220.98	-314.16	423.29	34.364	-556.02	1176.8	24.405	-407.95	992.25	278	-560.44	939.18	-38.904	-82.935	63.678	16.622	-555.22	1261.4	98.445	-271.12	28.765	-5.881	-477.61	1511.1	88.389	-215.89	89.151	28.429	-564.39	936.98	61.215	-439.92	980.17	206.76	-873.65	138.94	125.26	-923.88	152.13	84.209	-488.42	1389.1	18.675	-112.05	43.947	-57.117	-630.26	1039.5	-134.92	-224.65	65.834	-50.178
